<svg width="21" height="14" viewBox="0 0 21 14" fill="none" xmlns="http://www.w3.org/2000/svg">
<path d="M20.1094 6.75781C18.2109 3.03125 14.4141 0.5 10.125 0.5C5.80078 0.5 2.00391 3.03125 0.105469 6.75781C0.0351562 6.89844 0 7.07422 0 7.25C0 7.46094 0.0351562 7.63672 0.105469 7.77734C2.00391 11.5039 5.80078 14 10.125 14C14.4141 14 18.2109 11.5039 20.1094 7.77734C20.1797 7.63672 20.2148 7.46094 20.2148 7.28516C20.2148 7.07422 20.1797 6.89844 20.1094 6.75781ZM10.125 12.3125C7.3125 12.3125 5.0625 10.0625 5.0625 7.25C5.0625 4.47266 7.3125 2.1875 10.125 2.1875C12.9023 2.1875 15.1875 4.47266 15.1875 7.25V7.28516C15.1875 10.0625 12.9023 12.3477 10.125 12.3477V12.3125ZM10.125 3.875C9.80859 3.91016 9.49219 3.94531 9.21094 4.01562C9.42188 4.29688 9.52734 4.64844 9.52734 5.03516C9.52734 5.94922 8.78906 6.6875 7.875 6.6875C7.48828 6.6875 7.13672 6.58203 6.85547 6.37109C6.78516 6.65234 6.75 6.96875 6.75 7.25C6.75 9.11328 8.26172 10.625 10.125 10.625C11.9883 10.625 13.5 9.11328 13.5 7.25C13.5 5.38672 11.9883 3.91016 10.125 3.91016V3.875Z" fill="#00081E"/>
</svg>
