<svg width="211" height="32" viewBox="0 0 211 32" fill="none" xmlns="http://www.w3.org/2000/svg">
<path d="M42.4 5.3999V9.2999H41.8V5.7999H40V9.2999H39.5V5.3999H42.4Z" fill="black"/>
<path d="M44.7 7.9001C44.1 7.9001 43.5 8.0001 43.5 8.5001C43.5 8.8001 43.7 9.0001 44 9.0001C44.4 9.0001 44.6 8.8001 44.7 8.5001C44.7 8.4001 44.7 8.4001 44.7 8.3001V7.9001ZM45.2 8.6001C45.2 8.8001 45.2 9.1001 45.2 9.3001H44.7V8.9001C44.5 9.1001 44.2 9.3001 43.8 9.3001C43.3 9.4001 43 9.0001 43 8.6001C43 7.9001 43.6 7.6001 44.7 7.6001V7.5001C44.7 7.3001 44.6 6.9001 44.1 6.9001C43.8 6.9001 43.6 7.0001 43.4 7.1001L43.3 6.8001C43.5 6.7001 43.9 6.6001 44.2 6.6001C45.1 6.6001 45.3 7.2001 45.3 7.7001V8.6001H45.2Z" fill="black"/>
<path d="M46.5 8.2C46.5 8.3 46.5 8.3 46.5 8.4C46.6 8.7 46.9 9 47.3 9C47.8 9 48.1 8.6 48.1 7.9C48.1 7.3 47.8 6.9 47.3 6.9C47 6.9 46.6 7.1 46.5 7.5C46.5 7.6 46.5 7.6 46.5 7.7V8.2ZM46 7.4C46 7 46 6.8 46 6.5H46.5V7C46.7 6.7 47 6.5 47.5 6.5C48.2 6.5 48.7 7.1 48.7 7.9C48.7 8.9 48.1 9.4 47.4 9.4C47 9.4 46.7 9.2 46.5 9V10.5H46V7.4Z" fill="black"/>
<path d="M51.1 6.5V6.9H50.3V9.3H49.8V6.9H48.9V6.5H51.1Z" fill="black"/>
<path d="M52.1 6.5V7.6H53.4V6.5H53.9V9.3H53.4V8H52.1V9.3H51.6V6.5H52.1Z" fill="black"/>
<path d="M56.5 7.6001C56.5 7.3001 56.4 6.8001 55.8 6.8001C55.3 6.8001 55.1 7.3001 55 7.6001H56.5ZM55 8.0001C55 8.7001 55.4 9.0001 56 9.0001C56.4 9.0001 56.6 8.9001 56.8 8.9001L56.9 9.3001C56.7 9.4001 56.4 9.5001 56 9.5001C55.1 9.5001 54.6 8.9001 54.6 8.1001C54.6 7.3001 55.1 6.6001 55.9 6.6001C56.8 6.6001 57.1 7.4001 57.1 7.9001C57.1 8.0001 57.1 8.1001 57.1 8.1001H55V8.0001Z" fill="black"/>
<path d="M58.1 8.2C58.1 8.3 58.1 8.3 58.1 8.4C58.3 8.7 58.6 9 58.9 9C59.4 9 59.7 8.6 59.7 7.9C59.7 7.3 59.4 6.9 58.9 6.9C58.6 6.9 58.2 7.1 58.1 7.5C58.1 7.6 58.1 7.6 58.1 7.7V8.2ZM57.6 7.4C57.6 7 57.6 6.8 57.6 6.5H58.1V7C58.3 6.7 58.6 6.5 59.1 6.5C59.8 6.5 60.3 7.1 60.3 7.9C60.3 8.9 59.7 9.4 59 9.4C58.6 9.4 58.3 9.2 58.1 9V10.5H57.6V7.4Z" fill="black"/>
<path d="M62.9 9.2C62.8 9.3 62.4999 9.4 62.0999 9.4C61.2999 9.4 60.7 8.8 60.7 8C60.7 7.1 61.3 6.5 62.2 6.5C62.5 6.5 62.8 6.6 62.9 6.7L62.7999 7C62.6999 6.9 62.5 6.9 62.2 6.9C61.6 6.9 61.2 7.4 61.2 8C61.2 8.6 61.6 9 62.2 9C62.5 9 62.6999 8.9 62.7999 8.9L62.9 9.2Z" fill="black"/>
<path d="M65.5 6.5V6.9H64.6V9.3H64.1V6.9H63.3V6.5H65.5Z" fill="black"/>
<path d="M66.4 7.6999H66.8C67.2 7.6999 67.6 7.5999 67.6 7.2999C67.6 6.9999 67.4 6.8999 66.8 6.8999C66.6 6.8999 66.5 6.8999 66.4 6.8999V7.6999ZM66.4 8.9999C66.5 8.9999 66.6 8.9999 66.8 8.9999C67.1 8.9999 67.7 8.8999 67.7 8.4999C67.7 8.0999 67.3 7.9999 66.8 7.9999H66.4V8.9999ZM65.9 6.4999C66.1 6.4999 66.5 6.3999 66.8 6.3999C67.3 6.3999 68 6.4999 68 7.0999C68 7.3999 67.7 7.6999 67.4 7.6999C67.8 7.7999 68.1 7.9999 68.1 8.3999C68.1 9.0999 67.2 9.1999 66.6 9.1999C66.3 9.1999 66 9.1999 65.8 9.1999V6.4999H65.9Z" fill="black"/>
<path d="M69.2 7.89988C69.2 8.49988 69.5 8.99988 70 8.99988C70.5 8.99988 70.9 8.49988 70.9 7.89988C70.9 7.39988 70.7 6.79988 70.1 6.79988C69.4 6.79988 69.2 7.39988 69.2 7.89988ZM71.4 7.89988C71.4 8.89988 70.7 9.39988 70 9.39988C69.2 9.39988 68.7 8.79988 68.7 7.99988C68.7 7.09988 69.3 6.49988 70.1 6.49988C70.8 6.39988 71.4 6.99988 71.4 7.89988Z" fill="black"/>
<path d="M28.3 12.5C28.3 12.9 28.3 13.2 28.2 13.5C28.1 13.7 28.1 13.9 28 14H29.3V12H28.4V12.5H28.3ZM29.8 11.7V14.1H30.1V15.4H29.7V14.5H27.8V15.4H27.4V14.1H27.6C27.7 13.9 27.8 13.7 27.9 13.5C28 13.2 28.1 12.8 28.1 12.4V11.7H29.8Z" fill="black"/>
<path d="M32.7999 11.7V14.5H32.2999V12.1H31.2999V12.8C31.2999 13.6 31.2 14.1 30.9 14.4C30.8 14.5 30.5999 14.6 30.2999 14.6L30.2 14.2C30.3 14.2 30.4 14.1 30.5 14.1C30.8 13.9 30.7999 13.5 30.7999 12.9V11.8H32.7999" fill="black"/>
<path d="M35.2001 12C35.1001 12 35 12 34.8 12C34.5 12 34 12.1 34 12.5C34 12.9 34.4001 13 34.7001 13C34.9001 13 35 13 35.1 13V12H35.2001ZM35.7001 14.5H35.2001V13.3H34.8C34.6 13.3 34.4 13.4 34.3 13.5C34.1 13.7 34.0001 14 33.9001 14.3C33.9001 14.4 33.8 14.5 33.8 14.5H33.3C33.4 14.4 33.4 14.3 33.5 14.2C33.6 13.9 33.7001 13.6 33.9001 13.4C34.0001 13.3 34.1001 13.3 34.2001 13.2C33.8001 13.2 33.5 12.9 33.5 12.5C33.5 12.2 33.7001 12 33.9001 11.9C34.1001 11.8 34.5 11.7 34.8 11.7C35.1 11.7 35.5001 11.7 35.7001 11.8V14.5Z" fill="black"/>
<path d="M38.2999 13.4C38.2999 13.5 38.2999 13.5 38.2999 13.6C38.3999 14 38.6999 14.2 39.0999 14.2C39.5999 14.2 40 13.8 40 13.1C40 12.5 39.7 12.1 39.2 12.1C38.9 12.1 38.5 12.3 38.4 12.7C38.4 12.8 38.4 12.8 38.4 12.9V13.4H38.2999ZM37.7999 12.6C37.7999 12.2 37.7999 12 37.7999 11.7H38.2V12.2C38.4 11.9 38.7 11.7 39.2 11.7C39.9 11.7 40.4 12.3 40.4 13.1C40.4 14.1 39.7999 14.6 39.0999 14.6C38.6999 14.6 38.4 14.4 38.2 14.2V15.7H37.7V12.6H37.7999Z" fill="black"/>
<path d="M41.4 13.1001C41.4 13.7001 41.7 14.2001 42.2 14.2001C42.7 14.2001 43 13.7001 43 13.1001C43 12.6001 42.8 12.0001 42.2 12.0001C41.6 12.0001 41.4 12.6001 41.4 13.1001ZM43.6 13.1001C43.6 14.1001 42.9 14.6001 42.2 14.6001C41.4 14.6001 40.9 14.0001 40.9 13.2001C40.9 12.3001 41.5 11.7001 42.3 11.7001C43 11.6001 43.6 12.2001 43.6 13.1001Z" fill="black"/>
<path d="M44.5 12.9001H44.7C45.1 12.9001 45.4 12.7001 45.4 12.4001C45.4 12.2001 45.2 12.0001 44.9 12.0001C44.7 12.0001 44.4 12.1001 44.2 12.2001L44.1 11.9001C44.4 11.7001 44.7 11.6001 45 11.6001C45.4 11.6001 45.9 11.8001 45.9 12.3001C45.9 12.6001 45.6 12.9001 45.3 12.9001C45.7 12.9001 46.1 13.2001 46.1 13.6001C46.1 14.2001 45.5 14.4001 44.9 14.4001C44.6 14.4001 44.2 14.3001 44 14.2001L44.1 13.9001C44.3 14.0001 44.6 14.1001 44.8 14.1001C45.2 14.1001 45.5 13.9001 45.5 13.6001C45.5 13.2001 45.1 13.1001 44.7 13.1001H44.5V12.9001Z" fill="black"/>
<path d="M47.2 12.9001H47.6C48 12.9001 48.4 12.8001 48.4 12.5001C48.4 12.2001 48.2 12.1001 47.6 12.1001C47.4 12.1001 47.3 12.1001 47.2 12.1001V12.9001ZM47.2 14.2001C47.3 14.2001 47.4 14.2001 47.6 14.2001C47.9 14.2001 48.5 14.1001 48.5 13.7001C48.5 13.3001 48.1 13.2001 47.6 13.2001H47.2V14.2001ZM46.7 11.7001C46.9 11.7001 47.3 11.6001 47.6 11.6001C48.1 11.6001 48.8 11.7001 48.8 12.3001C48.8 12.6001 48.5 12.9001 48.2 12.9001C48.6 13.0001 48.9 13.2001 48.9 13.6001C48.9 14.3001 48 14.4001 47.4 14.4001C47.1 14.4001 46.8 14.4001 46.6 14.4001V11.7001H46.7Z" fill="black"/>
<path d="M50.1 11.7V12.9C50.1 13.3 50.1 13.6 50.1 14C50.3 13.7 50.4 13.5 50.6 13.1L51.5 11.7H52V14.5H51.5V13.3C51.5 12.8 51.5 12.6 51.5 12.2C51.3 12.6 51.2 12.8 51 13.1C50.7 13.5 50.4 14.1 50.1 14.6H49.5V11.8H50.1" fill="black"/>
<path d="M54.7 11.7V12.1H53.8V14.5H53.3V12.1H52.4V11.7H54.7Z" fill="black"/>
<path d="M55.6 11.7V12.9H55.7L56.7 11.7H57.3L56.2 13C56.7 13.1 56.9 13.4 57.1 13.9C57.2 14.1 57.3 14.4 57.4 14.6H56.9C56.8 14.5 56.7 14.3 56.6 14C56.4 13.5 56.1 13.3 55.7 13.3H55.6V14.5H55.1V11.7H55.6Z" fill="black"/>
<path d="M58.1 11.7L58.7 13.4C58.8 13.6 58.8 13.8 58.9 14C59 13.8 59 13.6 59.1 13.4L59.7 11.8H60.2L59.4 13.8C59 14.8 58.8 15.2 58.4 15.6C58.1 15.8 57.9 15.9 57.8 15.9L57.7 15.5C57.8 15.5 58 15.4 58.1 15.3C58.2 15.2 58.4 15 58.5 14.7C58.5 14.6 58.5 14.6 58.5 14.6V14.5L57.5 11.9H58.1" fill="black"/>
<path d="M61.9 11.7H62.5L63 13.1C63.1 13.3 63.2 13.7 63.3 13.9C63.4 13.7 63.5 13.2 63.6 12.9L64 11.7H64.6L64.8 14.5H64.3L64.2 13.2C64.2 12.9 64.2 12.5 64.2 12.2C64.1 12.5 64 12.7 63.9 13.1L63.4 14.5H63L62.5 13.1C62.4 12.8 62.3 12.4 62.2 12.2C62.2 12.5 62.2 12.9 62.2 13.2L62.1 14.5H61.6L61.9 11.7Z" fill="black"/>
<path d="M66.1 14.5001H65.6V11.7001H66.1V14.5001ZM66.2 10.9001C66.2 11.1001 66.1 11.2001 65.9 11.2001C65.7 11.2001 65.6 11.1001 65.6 10.9001C65.6 10.7001 65.7 10.6001 65.9 10.6001C66 10.6001 66.2 10.7001 66.2 10.9001Z" fill="black"/>
<path d="M69 14.4C68.9 14.5 68.6 14.6 68.2 14.6C67.4 14.6 66.8 14 66.8 13.2C66.8 12.3 67.4 11.7 68.3 11.7C68.6 11.7 68.9 11.8 69 11.8L68.9 12.2C68.8 12.1 68.6 12.1 68.3 12.1C67.7 12.1 67.3 12.6 67.3 13.2C67.3 13.8 67.7 14.2 68.3 14.2C68.6 14.2 68.8 14.1 68.9 14.1L69 14.4Z" fill="black"/>
<path d="M71.5 11.7V12.1H70.7V14.5H70.2V12.1H69.3V11.7H71.5Z" fill="black"/>
<path d="M111.7 2.79995V6.09995H113.4C114.2 6.09995 114.8 5.99995 115.1 5.69995C115.4 5.39995 115.6 4.99995 115.6 4.39995C115.6 3.79995 115.4 3.39995 115 3.09995C114.6 2.79995 113.9 2.69995 113 2.69995H111.7V2.79995ZM108.1 0.199951H114.5C116 0.199951 117.2 0.699951 118.1 1.59995C118.9 2.39995 119.3 3.39995 119.3 4.49995C119.3 5.59995 118.9 6.59995 118.2 7.39995C117.3 8.29995 116.1 8.79995 114.6 8.79995H111.8V14.5H108.2V0.199951H108.1Z" fill="#748D93"/>
<path d="M132.6 11.9V14.5H121.7V0.199951H125.3V11.9H132.6Z" fill="#748D93"/>
<path d="M145.2 11.9V14.5H134.7V0.199951H145.1V2.79995H138.2V5.79995H144.7V8.39995H138.2V11.9H145.2Z" fill="#748D93"/>
<path d="M151.5 2.79995V11.9H153.8C155.4 11.9 156.7 11.4 157.5 10.4C158.2 9.59995 158.5 8.59995 158.5 7.29995C158.5 5.99995 158.1 4.89995 157.4 4.09995C156.6 3.19995 155.4 2.79995 153.8 2.79995H151.5ZM147.9 0.199951H154.2C156.7 0.199951 158.7 0.899951 160.1 2.29995C161.4 3.59995 162.1 5.29995 162.1 7.39995C162.1 9.59995 161.4 11.3 160.1 12.5C158.6 13.9 156.5 14.5 153.8 14.5H147.9V0.199951Z" fill="#748D93"/>
<path d="M168.3 2.79995V11.9H170.6C172.2 11.9 173.5 11.4 174.3 10.4C175 9.59995 175.3 8.59995 175.3 7.29995C175.3 5.99995 174.9 4.89995 174.2 4.09995C173.4 3.19995 172.2 2.79995 170.6 2.79995H168.3ZM164.7 0.199951H171C173.5 0.199951 175.5 0.899951 176.9 2.29995C178.2 3.59995 178.9 5.29995 178.9 7.39995C178.9 9.59995 178.2 11.3 176.9 12.5C175.4 13.9 173.3 14.5 170.6 14.5H164.7V0.199951Z" fill="#748D93"/>
<path d="M195.2 1.2V4.3C193.4 3.4 191.6 3 189.9 3C188.1 3 186.8 3.5 185.8 4.4C185 5.2 184.6 6.2 184.6 7.5C184.6 8.8 185.1 9.8 186 10.6C186.9 11.4 188.1 11.8 189.6 11.8C190.1 11.8 190.5 11.8 190.7 11.7C191 11.6 191.4 11.5 191.9 11.3V9.5H189.8V6.9H195.4V12.7C194.9 13.2 194 13.7 192.9 14.1C191.8 14.5 190.6 14.7 189.4 14.7C186.9 14.7 184.9 14 183.3 12.6C181.7 11.2 180.9 9.5 180.9 7.3C180.9 5.1 181.7 3.3 183.3 2C184.9 0.7 187 0 189.5 0C190.6 0 191.6 0.1 192.6 0.3C193.6 0.5 194.4 0.8 195.2 1.2Z" fill="#748D93"/>
<path d="M108.5 19.2999C108.6 19.2999 108.7 19.2999 108.9 19.2999C109.5 19.2999 109.9 18.9999 109.9 18.4999C109.9 17.9999 109.5 17.6999 109 17.6999C108.8 17.6999 108.6 17.6999 108.5 17.6999V19.2999ZM108 17.4999C108.2 17.4999 108.6 17.3999 109 17.3999C109.5 17.3999 109.9 17.4999 110.1 17.6999C110.3 17.8999 110.4 18.1999 110.4 18.4999C110.4 18.8999 110.3 19.0999 110.1 19.2999C109.8 19.5999 109.4 19.6999 108.9 19.6999C108.7 19.6999 108.6 19.6999 108.5 19.6999V21.2999H108V17.4999Z" fill="black"/>
<path d="M112.4 19.9C111.8 19.9 111.2 20 111.2 20.5C111.2 20.8 111.4 21 111.7 21C112.1 21 112.3 20.8 112.4 20.5C112.4 20.4 112.4 20.4 112.4 20.3V19.9ZM112.9 20.6C112.9 20.8 112.9 21.1 112.9 21.3H112.4V20.9C112.2 21.1 111.9 21.3 111.5 21.3C110.9 21.3 110.6 20.9 110.6 20.5C110.6 19.8 111.2 19.5 112.3 19.5V19.4C112.3 19.2 112.2 18.8 111.7 18.8C111.4 18.8 111.2 18.9 111 19L110.9 18.7C111.1 18.6 111.5 18.5 111.8 18.5C112.7 18.5 112.9 19.1 112.9 19.6V20.6Z" fill="black"/>
<path d="M113.7 19.4C113.7 19.1 113.7 18.8 113.7 18.5H114.1V19.1C114.2 18.7 114.5 18.5 114.9 18.5C115 18.5 115 18.5 115 18.5V19C114.9 19 114.9 19 114.8 19C114.4 19 114.2 19.3 114.1 19.6C114.1 19.7 114.1 19.8 114.1 19.8V21.3H113.6V19.4" fill="black"/>
<path d="M116.3 17.8V18.5H117V18.9H116.3V20.4C116.3 20.7 116.4 20.9 116.7 20.9C116.8 20.9 116.9 20.9 117 20.9V21.3C116.9 21.3 116.7 21.4 116.5 21.4C116.3 21.4 116.1 21.3001 116 21.2001C115.9 21.0001 115.8 20.8 115.8 20.5V19H115.4V18.6H115.8V18L116.3 17.8Z" fill="black"/>
<path d="M117.6 19.3C117.6 19 117.6 18.8 117.6 18.5H118.1V19C118.2 18.7 118.6 18.5 119 18.5C119.4 18.5 120 18.7 120 19.7V21.4H119.5V19.8C119.5 19.3 119.3 19 118.9 19C118.6 19 118.3 19.2 118.2 19.5C118.2 19.6 118.2 19.7 118.2 19.7V21.4H117.7V19.3" fill="black"/>
<path d="M122.6 19.6001C122.6 19.3001 122.5 18.8001 121.9 18.8001C121.4 18.8001 121.2 19.3001 121.1 19.6001H122.6ZM121.1 20.0001C121.1 20.7001 121.5 21.0001 122.1 21.0001C122.5 21.0001 122.7 20.9001 122.9 20.9001L123 21.3001C122.8 21.4001 122.5 21.5001 122.1 21.5001C121.2 21.5001 120.7 20.9001 120.7 20.1001C120.7 19.3001 121.2 18.6001 122 18.6001C122.9 18.6001 123.2 19.4001 123.2 19.9001C123.2 20.0001 123.2 20.1001 123.2 20.1001H121.1V20.0001Z" fill="black"/>
<path d="M123.7 19.4C123.7 19.1 123.7 18.8 123.7 18.5H124.1V19.1C124.2 18.7 124.5 18.5 124.9 18.5C125 18.5 125 18.5 125 18.5V19C124.9 19 124.9 19 124.8 19C124.4 19 124.2 19.3 124.1 19.6C124.1 19.7 124.1 19.8 124.1 19.8V21.3H123.6V19.4" fill="black"/>
<path d="M125.5 20.8C125.7 20.9 125.9 21 126.2 21C126.6 21 126.7 20.8 126.7 20.6C126.7 20.4 126.6 20.2 126.2 20.1C125.7 19.9 125.5 19.6 125.5 19.3C125.5 18.8 125.9 18.5 126.5 18.5C126.8 18.5 127 18.6 127.2 18.7L127 19C126.9 18.9 126.7 18.8 126.4 18.8C126.1 18.8 125.9 19 125.9 19.2C125.9 19.4 126.1 19.5 126.4 19.7C126.9 19.9 127.1 20.1 127.1 20.5C127.1 21 126.7 21.3 126.1 21.3C125.8 21.3 125.5 21.2 125.3 21.1L125.5 20.8Z" fill="black"/>
<path d="M127.9 17.2H128.4V19C128.5 18.9 128.6 18.7 128.8 18.6C128.9 18.5 129.1 18.5 129.3 18.5C129.7 18.5 130.3 18.7 130.3 19.7V21.4H129.8V19.7999C129.8 19.3999 129.6 19 129.2 19C128.9 19 128.6 19.2 128.5 19.5C128.5 19.6 128.5 19.6 128.5 19.7V21.4H128V17.2" fill="black"/>
<path d="M131.6 21.2999H131.1V18.4999H131.6V21.2999ZM131.7 17.6999C131.7 17.8999 131.6 17.9999 131.4 17.9999C131.2 17.9999 131.1 17.8999 131.1 17.6999C131.1 17.4999 131.2 17.3999 131.4 17.3999C131.6 17.3999 131.7 17.4999 131.7 17.6999Z" fill="black"/>
<path d="M133 20.2C133 20.3 133 20.3 133 20.4C133.1 20.8 133.4 21 133.8 21C134.3 21 134.7 20.6 134.7 19.9C134.7 19.3 134.4 18.9 133.9 18.9C133.6 18.9 133.2 19.1 133.1 19.5C133.1 19.6 133.1 19.6 133.1 19.7V20.2H133ZM132.5 19.4C132.5 19 132.5 18.8 132.5 18.5H132.9V19C133.1 18.7 133.4 18.5 133.9 18.5C134.6 18.5 135.1 19.1 135.1 19.9C135.1 20.9 134.5 21.4 133.8 21.4C133.4 21.4 133.1 21.2 132.9 21V22.5H132.4V19.4H132.5Z" fill="black"/>
<path d="M137 21.3001V18.9001H136.6V18.5001H137V18.4001C137 18.0001 137.1 17.6001 137.3 17.4001C137.5 17.2001 137.7 17.1001 138 17.1001C138.2 17.1001 138.3 17.1001 138.4 17.2001L138.3 17.6001C138.2 17.6001 138.1 17.5001 138 17.5001C137.6 17.5001 137.5 17.9001 137.5 18.3001V18.5001H138.2V18.9001H137.5V21.3001H137Z" fill="black"/>
<path d="M138.9 19.9001C138.9 20.5001 139.2 21.0001 139.7 21.0001C140.2 21.0001 140.6 20.5001 140.6 19.9001C140.6 19.4001 140.4 18.8001 139.8 18.8001C139.2 18.8001 138.9 19.4001 138.9 19.9001ZM141.1 19.9001C141.1 20.9001 140.4 21.4001 139.7 21.4001C138.9 21.4001 138.4 20.8001 138.4 20.0001C138.4 19.1001 139 18.5001 139.8 18.5001C140.6 18.4001 141.1 19.0001 141.1 19.9001Z" fill="black"/>
<path d="M141.8 19.4C141.8 19.1 141.8 18.8 141.8 18.5H142.2V19.1C142.3 18.7 142.6 18.5 143 18.5C143.1 18.5 143.1 18.5 143.1 18.5V19C143 19 143 19 142.9 19C142.5 19 142.3 19.3 142.2 19.6C142.2 19.7 142.2 19.8 142.2 19.8V21.3H141.7V19.4" fill="black"/>
<path d="M144.9 17.3999H145.4V20.8999H147.1V21.2999H144.9V17.3999Z" fill="black"/>
<path d="M147.9 19.9001C147.9 20.5001 148.2 21.0001 148.7 21.0001C149.2 21.0001 149.6 20.5001 149.6 19.9001C149.6 19.4001 149.4 18.8001 148.8 18.8001C148.1 18.8001 147.9 19.4001 147.9 19.9001ZM150.1 19.9001C150.1 20.9001 149.4 21.4001 148.7 21.4001C147.9 21.4001 147.4 20.8001 147.4 20.0001C147.4 19.1001 148 18.5001 148.8 18.5001C149.5 18.4001 150.1 19.0001 150.1 19.9001Z" fill="black"/>
<path d="M152.7 21.2C152.6 21.3 152.3 21.4 151.9 21.4C151.1 21.4 150.5 20.8 150.5 20C150.5 19.1 151.1 18.5 152 18.5C152.3 18.5 152.6 18.6 152.7 18.7L152.6 19.1C152.5 19 152.3 19 152 19C151.4 19 151 19.5 151 20.1C151 20.7 151.4 21.1 152 21.1C152.3 21.1 152.5 21 152.6 21L152.7 21.2Z" fill="black"/>
<path d="M154.8 19.9C154.2 19.9 153.6 20 153.6 20.5C153.6 20.8 153.8 21 154.1 21C154.5 21 154.7 20.8 154.8 20.5C154.8 20.4 154.8 20.4 154.8 20.3V19.9ZM155.3 20.6C155.3 20.8 155.3 21.1 155.3 21.3H154.8V20.9C154.6 21.1 154.3 21.3 153.9 21.3C153.3 21.3 153 20.9 153 20.5C153 19.8 153.6 19.5 154.7 19.5V19.4C154.7 19.2 154.6 18.8 154.1 18.8C153.8 18.8 153.6 18.9 153.4 19L153.3 18.7C153.5 18.6 153.9 18.5 154.2 18.5C155.1 18.5 155.3 19.1 155.3 19.6V20.6Z" fill="black"/>
<path d="M156.6 17.2H156.1V21.2999H156.6V17.2Z" fill="black"/>
<path d="M160.7 19.4999H159.2V20.8999H160.9V21.2999H158.7V17.3999H160.8V17.7999H159.2V19.0999H160.7V19.4999Z" fill="black"/>
<path d="M163.5 21.2C163.4 21.3 163.1 21.4 162.7 21.4C161.9 21.4 161.3 20.8 161.3 20C161.3 19.1 161.9 18.5 162.8 18.5C163.1 18.5 163.4 18.6 163.5 18.7L163.4 19.1C163.3 19 163.1 19 162.8 19C162.2 19 161.8 19.5 161.8 20.1C161.8 20.7 162.2 21.1 162.8 21.1C163.1 21.1 163.3 21 163.4 21L163.5 21.2Z" fill="black"/>
<path d="M164.4 19.9001C164.4 20.5001 164.7 21.0001 165.2 21.0001C165.7 21.0001 166.1 20.5001 166.1 19.9001C166.1 19.4001 165.9 18.8001 165.3 18.8001C164.6 18.8001 164.4 19.4001 164.4 19.9001ZM166.6 19.9001C166.6 20.9001 165.9 21.4001 165.2 21.4001C164.4 21.4001 163.9 20.8001 163.9 20.0001C163.9 19.1001 164.5 18.5001 165.3 18.5001C166.1 18.4001 166.6 19.0001 166.6 19.9001Z" fill="black"/>
<path d="M167.2 19.3C167.2 19 167.2 18.8 167.2 18.5H167.7V19C167.8 18.7 168.2 18.5 168.6 18.5C169 18.5 169.6 18.7 169.6 19.7V21.4H169.1V19.8C169.1 19.3 168.9 19 168.5 19C168.2 19 167.9 19.2 167.8 19.5C167.8 19.6 167.8 19.7 167.8 19.7V21.4H167.3V19.3" fill="black"/>
<path d="M170.8 19.9001C170.8 20.5001 171.1 21.0001 171.6 21.0001C172.1 21.0001 172.4 20.5001 172.4 19.9001C172.4 19.4001 172.2 18.8001 171.6 18.8001C171 18.8001 170.8 19.4001 170.8 19.9001ZM173 19.9001C173 20.9001 172.3 21.4001 171.6 21.4001C170.8 21.4001 170.3 20.8001 170.3 20.0001C170.3 19.1001 170.9 18.5001 171.7 18.5001C172.4 18.4001 173 19.0001 173 19.9001Z" fill="black"/>
<path d="M173.6 19.3C173.6 19 173.6 18.8 173.6 18.5H174V19C174.2 18.7 174.4 18.5 174.9 18.5C175.3 18.5 175.6 18.7 175.7 19.1C175.8 18.9 175.9 18.8 176 18.7C176.2 18.6 176.3 18.5 176.6 18.5C177 18.5 177.5 18.7 177.5 19.7V21.3H177V19.7C177 19.2 176.8 18.8 176.4 18.8C176.1 18.8 175.9 19 175.8 19.3C175.8 19.4 175.8 19.5 175.8 19.6V21.3H175.3V19.6C175.3 19.2 175.1 18.8 174.7 18.8C174.4 18.8 174.2 19.1 174.1 19.3C174.1 19.4 174.1 19.5 174.1 19.5V21.2H173.6V19.3Z" fill="black"/>
<path d="M179 21.2999H178.5V18.4999H179V21.2999ZM179 17.6999C179 17.8999 178.9 17.9999 178.7 17.9999C178.5 17.9999 178.4 17.8999 178.4 17.6999C178.4 17.4999 178.5 17.3999 178.7 17.3999C178.9 17.3999 179 17.4999 179 17.6999Z" fill="black"/>
<path d="M181.8 21.2C181.7 21.3 181.4 21.4 181 21.4C180.2 21.4 179.6 20.8 179.6 20C179.6 19.1 180.2 18.5 181.1 18.5C181.4 18.5 181.7 18.6 181.8 18.7L181.7 19.1C181.6 19 181.4 19 181.1 19C180.5 19 180.1 19.5 180.1 20.1C180.1 20.7 180.5 21.1 181.1 21.1C181.4 21.1 181.6 21 181.7 21L181.8 21.2Z" fill="black"/>
<path d="M108.5 26.1001C108.6 26.1001 108.8 26.1001 109 26.1001C110.1 26.1001 110.7 25.5001 110.7 24.4001C110.7 23.5001 110.2 22.9001 109.1 22.9001C108.8 22.9001 108.6 22.9001 108.5 23.0001V26.1001ZM108 22.7001C108.3 22.6001 108.7 22.6001 109.1 22.6001C109.8 22.6001 110.3 22.8001 110.7 23.1001C111.1 23.4001 111.3 23.9001 111.3 24.5001C111.3 25.1001 111.1 25.7001 110.7 26.0001C110.3 26.4001 109.7 26.6001 109 26.6001C108.6 26.6001 108.3 26.6001 108.1 26.6001V22.7001H108Z" fill="black"/>
<path d="M113.6 24.8C113.6 24.5 113.5 24 112.9 24C112.4 24 112.2 24.5 112.1 24.8H113.6ZM112.1 25.2001C112.1 25.9001 112.5 26.2001 113.1 26.2001C113.5 26.2001 113.7 26.1 113.9 26.1L114 26.5C113.8 26.6 113.5 26.7001 113.1 26.7001C112.2 26.7001 111.7 26.1 111.7 25.3C111.7 24.5 112.2 23.8 113 23.8C113.9 23.8 114.2 24.6 114.2 25.1C114.2 25.2 114.2 25.3 114.2 25.3H112.1V25.2001Z" fill="black"/>
<path d="M114.9 23.7L115.5 25.2999C115.6 25.5999 115.7 25.8 115.7 26C115.8 25.8 115.8 25.4999 115.9 25.2999L116.4 23.7H116.9L115.8 26.5H115.3L114.2 23.7H114.9Z" fill="black"/>
<path d="M119.2 24.8C119.2 24.5 119.1 24 118.5 24C118 24 117.8 24.5 117.7 24.8H119.2ZM117.7 25.2001C117.7 25.9001 118.1 26.2001 118.7 26.2001C119.1 26.2001 119.3 26.1 119.5 26.1L119.6 26.5C119.4 26.6 119.1 26.7001 118.7 26.7001C117.8 26.7001 117.3 26.1 117.3 25.3C117.3 24.5 117.8 23.8 118.6 23.8C119.5 23.8 119.8 24.6 119.8 25.1C119.8 25.2 119.8 25.3 119.8 25.3H117.7V25.2001Z" fill="black"/>
<path d="M120.9 22.3999H120.4V26.4999H120.9V22.3999Z" fill="black"/>
<path d="M122 25.1C122 25.7 122.3 26.2 122.8 26.2C123.3 26.2 123.7 25.7 123.7 25.1C123.7 24.6 123.5 24 122.9 24C122.3 24 122 24.6 122 25.1ZM124.3 25.1C124.3 26.1 123.6 26.6 122.9 26.6C122.1 26.6 121.6 26 121.6 25.2C121.6 24.3 122.2 23.7 123 23.7C123.7 23.7 124.3 24.2 124.3 25.1Z" fill="black"/>
<path d="M125.4 25.4C125.4 25.5 125.4 25.5 125.4 25.6C125.5 26 125.8 26.2 126.2 26.2C126.7 26.2 127.1 25.8 127.1 25.1C127.1 24.5 126.8 24.1 126.3 24.1C126 24.1 125.6 24.3 125.5 24.7C125.5 24.8 125.5 24.8 125.5 24.9V25.4H125.4ZM124.9 24.6C124.9 24.2 124.9 24 124.9 23.7H125.4V24.2C125.6 23.9 125.9 23.7 126.4 23.7C127.1 23.7 127.6 24.3 127.6 25.1C127.6 26.1 127 26.6 126.3 26.6C125.9 26.6 125.6 26.4 125.4 26.2V27.7H124.9V24.6Z" fill="black"/>
<path d="M128.2 24.5C128.2 24.2 128.2 24 128.2 23.7H128.6V24.2C128.8 23.9 129 23.7 129.5 23.7C129.9 23.7 130.2 23.8999 130.3 24.2999C130.4 24.0999 130.5 24 130.6 23.9C130.8 23.8 130.9 23.7 131.2 23.7C131.6 23.7 132.1 23.9 132.1 24.9V26.5H131.6V24.9C131.6 24.4 131.4 24 131 24C130.7 24 130.5 24.2 130.4 24.5C130.4 24.6 130.4 24.6999 130.4 24.7999V26.5H129.9V24.7999C129.9 24.3999 129.7 24 129.3 24C129 24 128.7 24.3 128.7 24.5C128.7 24.6 128.7 24.7 128.7 24.7V26.4H128.2V24.5Z" fill="black"/>
<path d="M134.8 24.8C134.8 24.5 134.7 24 134.1 24C133.6 24 133.4 24.5 133.3 24.8H134.8ZM133.3 25.2001C133.3 25.9001 133.7 26.2001 134.3 26.2001C134.7 26.2001 134.9 26.1 135.1 26.1L135.2 26.5C135 26.6 134.7 26.7001 134.3 26.7001C133.4 26.7001 132.9 26.1 132.9 25.3C132.9 24.5 133.4 23.8 134.2 23.8C135.1 23.8 135.4 24.6 135.4 25.1C135.4 25.2 135.4 25.3 135.4 25.3H133.3V25.2001Z" fill="black"/>
<path d="M135.9 24.5C135.9 24.2 135.9 24 135.9 23.7H136.4V24.2C136.5 23.9 136.9 23.7 137.3 23.7C137.7 23.7 138.3 23.9 138.3 24.9V26.6H137.8V25C137.8 24.5 137.6 24.2 137.2 24.2C136.9 24.2 136.6 24.4 136.5 24.7C136.5 24.8 136.5 24.9 136.5 24.9V26.6H136V24.5" fill="black"/>
<path d="M139.7 23V23.7H140.4V24.1H139.7V25.6C139.7 25.9 139.8 26.1 140.1 26.1C140.2 26.1 140.3 26.1 140.4 26.1V26.5C140.3 26.5 140.1 26.6 139.9 26.6C139.7 26.6 139.5 26.5 139.4 26.4C139.3 26.2 139.2 26 139.2 25.7V24.2H138.8V23.8H139.2V23.3L139.7 23Z" fill="black"/>
<path d="M143.7 25.1C143.1 25.1 142.5 25.2 142.5 25.7C142.5 26 142.7 26.2 143 26.2C143.4 26.2 143.6 26 143.7 25.7C143.7 25.6 143.7 25.6 143.7 25.5V25.1ZM144.2 25.7999C144.2 25.9999 144.2 26.3 144.2 26.5H143.7V26.1C143.5 26.3 143.2 26.5 142.8 26.5C142.2 26.5 141.9 26.1 141.9 25.7C141.9 25 142.5 24.7 143.6 24.7V24.6C143.6 24.4 143.5 24 143 24C142.7 24 142.5 24.1 142.3 24.2L142.2 23.9C142.4 23.8 142.8 23.7 143.1 23.7C144 23.7 144.2 24.2999 144.2 24.7999V25.7999Z" fill="black"/>
<path d="M145 24.5C145 24.2 145 24 145 23.7H145.4V24.2C145.5 23.9 145.9 23.7 146.3 23.7C146.7 23.7 147.3 23.9 147.3 24.9V26.6H146.8V25C146.8 24.5 146.6 24.2 146.2 24.2C145.9 24.2 145.6 24.4 145.5 24.7C145.5 24.8 145.5 24.9 145.5 24.9V26.6H145V24.5Z" fill="black"/>
<path d="M150.1 24.8C150.1 24.7 150.1 24.7 150.1 24.6C150 24.3001 149.7 24 149.4 24C148.9 24 148.6 24.5001 148.6 25.1C148.6 25.7 148.9 26.1 149.4 26.1C149.7 26.1 150.1 25.9 150.1 25.5C150.1 25.4 150.1 25.4 150.1 25.3V24.8ZM150.6 22.4V25.8C150.6 26 150.6 26.3 150.6 26.5H150.1V26C149.9 26.3 149.6 26.5 149.2 26.5C148.5 26.5 148 25.9 148 25.1C148 24.2 148.6 23.6 149.3 23.6C149.7 23.6 150 23.8 150.1 24V22.3H150.6V22.4Z" fill="black"/>
<path d="M153.2 26.1001C153.3 26.1001 153.5 26.1001 153.7 26.1001C154.8 26.1001 155.4 25.5001 155.4 24.4001C155.4 23.5001 154.9 22.9001 153.8 22.9001C153.5 22.9001 153.3 22.9001 153.2 23.0001V26.1001ZM152.7 22.7001C153 22.6001 153.4 22.6001 153.8 22.6001C154.5 22.6001 155 22.8001 155.4 23.1001C155.8 23.4001 156 23.9001 156 24.5001C156 25.1001 155.8 25.7001 155.4 26.0001C155 26.4001 154.4 26.6001 153.7 26.6001C153.3 26.6001 153 26.6001 152.8 26.6001V22.7001H152.7Z" fill="black"/>
<path d="M158.4 24.8C158.4 24.5 158.3 24 157.7 24C157.2 24 157 24.5 156.9 24.8H158.4ZM156.9 25.2001C156.9 25.9001 157.3 26.2001 157.9 26.2001C158.3 26.2001 158.5 26.1 158.7 26.1L158.8 26.5C158.6 26.6 158.3 26.7001 157.9 26.7001C157 26.7001 156.5 26.1 156.5 25.3C156.5 24.5 157 23.8 157.8 23.8C158.7 23.8 159 24.6 159 25.1C159 25.2 159 25.3 159 25.3H156.9V25.2001Z" fill="black"/>
<path d="M159.5 24.5C159.5 24.2 159.5 24 159.5 23.7H159.9V24.2C160.1 23.9 160.3 23.7 160.8 23.7C161.2 23.7 161.5 23.8999 161.6 24.2999C161.7 24.0999 161.8 24 161.9 23.9C162.1 23.8 162.2 23.7 162.5 23.7C162.9 23.7 163.4 23.9 163.4 24.9V26.5H163V24.9C163 24.4 162.8 24 162.4 24C162.1 24 161.9 24.2 161.8 24.5C161.8 24.6 161.8 24.6999 161.8 24.7999V26.5H161.3V24.7999C161.3 24.3999 161.1 24 160.7 24C160.4 24 160.2 24.3 160.1 24.5C160.1 24.6 160.1 24.7 160.1 24.7V26.4H159.6V24.5" fill="black"/>
<path d="M164.6 25.1C164.6 25.7 164.9 26.2 165.4 26.2C165.9 26.2 166.3 25.7 166.3 25.1C166.3 24.6 166.1 24 165.5 24C164.9 24 164.6 24.6 164.6 25.1ZM166.9 25.1C166.9 26.1 166.2 26.6 165.5 26.6C164.7 26.6 164.2 26 164.2 25.2C164.2 24.3 164.8 23.7 165.6 23.7C166.3 23.7 166.9 24.2 166.9 25.1Z" fill="black"/>
<path d="M169.5 26.4C169.4 26.4999 169.1 26.6 168.7 26.6C167.9 26.6 167.3 26 167.3 25.2C167.3 24.3 167.9 23.7 168.8 23.7C169.1 23.7 169.4 23.7999 169.5 23.7999L169.4 24.2C169.3 24.1 169.1 24.1 168.8 24.1C168.2 24.1 167.8 24.6 167.8 25.2C167.8 25.8 168.2 26.2 168.8 26.2C169.1 26.2 169.3 26.1 169.4 26.1L169.5 26.4Z" fill="black"/>
<path d="M170.1 24.6C170.1 24.3 170.1 24 170.1 23.7H170.5V24.2999C170.6 23.8999 170.9 23.7 171.3 23.7C171.4 23.7 171.4 23.7 171.4 23.7V24.2C171.3 24.2 171.3 24.2 171.2 24.2C170.8 24.2 170.6 24.4999 170.5 24.7999C170.5 24.8999 170.5 25 170.5 25V26.5H170V24.6" fill="black"/>
<path d="M173.4 25.1C172.8 25.1 172.2 25.2 172.2 25.7C172.2 26 172.4 26.2 172.7 26.2C173.1 26.2 173.3 26 173.4 25.7C173.4 25.6 173.4 25.6 173.4 25.5V25.1ZM173.9 25.7999C173.9 25.9999 173.9 26.3 173.9 26.5H173.4V26.1C173.2 26.3 172.9 26.5 172.5 26.5C171.9 26.5 171.6 26.1 171.6 25.7C171.6 25 172.2 24.7 173.3 24.7V24.6C173.3 24.4 173.2 24 172.7 24C172.4 24 172.2 24.1 172 24.2L171.9 23.9C172.1 23.8 172.5 23.7 172.8 23.7C173.7 23.7 173.9 24.2999 173.9 24.7999V25.7999Z" fill="black"/>
<path d="M175.3 23V23.7H176V24.1H175.3V25.6C175.3 25.9 175.4 26.1 175.7 26.1C175.8 26.1 175.9 26.1 176 26.1V26.5C175.9 26.5 175.7 26.6 175.6 26.6C175.4 26.6 175.2 26.5 175.1 26.4C175 26.2 174.9 26 174.9 25.7V24.2H174.5V23.8H174.9V23.3L175.3 23Z" fill="black"/>
<path d="M177.1 26.5001H176.6V23.7001H177.1V26.5001ZM177.2 22.9001C177.2 23.1001 177.1 23.2001 176.9 23.2001C176.7 23.2001 176.6 23.1001 176.6 22.9001C176.6 22.7001 176.7 22.6001 176.9 22.6001C177.1 22.6001 177.2 22.7001 177.2 22.9001Z" fill="black"/>
<path d="M180 26.4C179.9 26.4999 179.6 26.6 179.2 26.6C178.4 26.6 177.8 26 177.8 25.2C177.8 24.3 178.4 23.7 179.3 23.7C179.6 23.7 179.9 23.7999 180 23.7999L179.9 24.2C179.8 24.1 179.6 24.1 179.3 24.1C178.7 24.1 178.3 24.6 178.3 25.2C178.3 25.8 178.7 26.2 179.3 26.2C179.6 26.2 179.8 26.1 179.9 26.1L180 26.4Z" fill="black"/>
<path d="M184.8 26.3C184.6 26.4 184.1 26.5 183.6 26.5C183 26.5 182.5 26.3 182.1 26C181.8 25.7 181.6 25.2 181.6 24.5C181.6 23.3 182.4 22.5 183.7 22.5C184.2 22.5 184.5 22.6 184.7 22.7L184.6 23.1C184.4 23 184.1 22.9 183.7 22.9C182.8 22.9 182.1 23.5 182.1 24.5C182.1 25.5 182.7 26.1 183.6 26.1C183.9 26.1 184.2 26.1 184.3 26V24.8H183.5V24.4H184.8V26.3Z" fill="black"/>
<path d="M185.9 25.1C185.9 25.7 186.2 26.2 186.7 26.2C187.2 26.2 187.6 25.7 187.6 25.1C187.6 24.6 187.4 24 186.8 24C186.1 24 185.9 24.6 185.9 25.1ZM188.1 25.1C188.1 26.1 187.4 26.6 186.7 26.6C185.9 26.6 185.4 26 185.4 25.2C185.4 24.3 186 23.7 186.8 23.7C187.6 23.7 188.1 24.2 188.1 25.1Z" fill="black"/>
<path d="M188.9 23.7L189.4 25.2999C189.5 25.5999 189.6 25.8 189.6 26C189.7 25.8 189.7 25.4999 189.8 25.2999L190.3 23.7H190.8L189.7 26.5H189.2L188.1 23.7H188.9Z" fill="black"/>
<path d="M193.2 24.8C193.2 24.5 193.1 24 192.5 24C192 24 191.8 24.5 191.7 24.8H193.2ZM191.7 25.2001C191.7 25.9001 192.1 26.2001 192.7 26.2001C193.1 26.2001 193.3 26.1 193.5 26.1L193.6 26.5C193.4 26.6 193.1 26.7001 192.7 26.7001C191.8 26.7001 191.3 26.1 191.3 25.3C191.3 24.5 191.8 23.8 192.6 23.8C193.5 23.8 193.8 24.6 193.8 25.1C193.8 25.2 193.8 25.3 193.8 25.3H191.7V25.2001Z" fill="black"/>
<path d="M194.3 24.6C194.3 24.3 194.3 24 194.3 23.7H194.7V24.2999C194.8 23.8999 195.1 23.7 195.5 23.7C195.6 23.7 195.6 23.7 195.6 23.7V24.2C195.5 24.2 195.5 24.2 195.4 24.2C195 24.2 194.8 24.4999 194.7 24.7999C194.7 24.8999 194.7 25 194.7 25V26.5H194.2V24.6" fill="black"/>
<path d="M196.2 24.5C196.2 24.2 196.2 24 196.2 23.7H196.6V24.2C196.7 23.9 197.1 23.7 197.5 23.7C197.9 23.7 198.5 23.9 198.5 24.9V26.6H198V25C198 24.5 197.8 24.2 197.4 24.2C197.1 24.2 196.8 24.4 196.7 24.7C196.7 24.8 196.7 24.9 196.7 24.9V26.6H196.2V24.5Z" fill="black"/>
<path d="M200.9 25.1C200.3 25.1 199.7 25.2 199.7 25.7C199.7 26 199.9 26.2 200.2 26.2C200.6 26.2 200.8 26 200.9 25.7C200.9 25.6 200.9 25.6 200.9 25.5V25.1ZM201.4 25.7999C201.4 25.9999 201.4 26.3 201.4 26.5H201V26.1C200.8 26.3 200.5 26.5 200.1 26.5C199.5 26.5 199.2 26.1 199.2 25.7C199.2 25 199.8 24.7 200.9 24.7V24.6C200.9 24.4 200.8 24 200.3 24C200 24 199.8 24.1 199.6 24.2L199.5 23.9C199.7 23.8 200.1 23.7 200.4 23.7C201.3 23.7 201.5 24.2999 201.5 24.7999V25.7999H201.4Z" fill="black"/>
<path d="M202.2 24.5C202.2 24.2 202.2 24 202.2 23.7H202.7V24.2C202.8 23.9 203.2 23.7 203.6 23.7C204 23.7 204.6 23.9 204.6 24.9V26.6H204.1V25C204.1 24.5 203.9 24.2 203.5 24.2C203.2 24.2 202.9 24.4 202.8 24.7C202.8 24.8 202.8 24.9 202.8 24.9V26.6H202.3V24.5" fill="black"/>
<path d="M207.4 26.4C207.3 26.4999 207 26.6 206.6 26.6C205.8 26.6 205.2 26 205.2 25.2C205.2 24.3 205.8 23.7 206.7 23.7C207 23.7 207.3 23.7999 207.4 23.7999L207.3 24.2C207.2 24.1 207 24.1 206.7 24.1C206.1 24.1 205.7 24.6 205.7 25.2C205.7 25.8 206.1 26.2 206.7 26.2C207 26.2 207.2 26.1 207.3 26.1L207.4 26.4Z" fill="black"/>
<path d="M209.8 24.8C209.8 24.5 209.7 24 209.1 24C208.6 24 208.4 24.5 208.3 24.8H209.8ZM208.3 25.2001C208.3 25.9001 208.7 26.2001 209.3 26.2001C209.7 26.2001 209.9 26.1 210.1 26.1L210.2 26.5C210 26.6 209.7 26.7001 209.3 26.7001C208.4 26.7001 207.9 26.1 207.9 25.3C207.9 24.5 208.4 23.8 209.2 23.8C210.1 23.8 210.4 24.6 210.4 25.1C210.4 25.2 210.4 25.3 210.4 25.3H208.3V25.2001Z" fill="black"/>
<path d="M81.3 14.1L82.3 10.7L84.2 12.7C84.7 13.3 85 13.2 85.4 13L86.9 12.2L87.2 14.5H88V0.199951H73.6V14.5H81.1C81.2 14.4 81.2 14.3 81.3 14.1Z" fill="#730938"/>
<path d="M14.2 17.3V31.6H10.7V20H3.6V31.6H0V17.3H14.2Z" fill="#748D93"/>
<path d="M17.4 17.3H23.8C27.1 17.3 28.5 19.6 28.5 21.5C28.5 23.5 27.1 25.8 23.8 25.8H21V31.6H17.4V17.3ZM21 23.2001H22.7C24.3 23.2001 24.9 22.6 24.9 21.5C24.9 20.3 24.2 19.8 22.3 19.8H21V23.2001Z" fill="#748D93"/>
<path d="M38.6 31.7001C33.4 31.7001 30.4 28.0001 30.4 24.4001C30.4 20.9001 33.2 17.1001 38.6 17.1001C44 17.1001 46.8 21.0001 46.8 24.4001C46.8 28.1001 43.8 31.7001 38.6 31.7001ZM38.6 20.1001C35.9 20.1001 34.1 21.8001 34.1 24.5001C34.1 27.1001 35.9 28.9001 38.6 28.9001C41.3 28.9001 43.1 27.2001 43.1 24.5001C43.1 21.8001 41.3 20.1001 38.6 20.1001Z" fill="#748D93"/>
<path d="M52.5 17.3L57.1 22.6L61.7 17.3H64.8V31.6H61.2V22.6L57.3 27.1H56.8L52.9 22.6V31.6H49.4V17.3H52.5Z" fill="#748D93"/>
<path d="M71.6 17.3H68V31.6H71.6V17.3Z" fill="#748D93"/>
<path d="M88 21.4999C86.4 20.5999 84.8 19.9999 83.1 19.9999C80.1 19.9999 77.9 21.7999 77.9 24.2999C77.9 26.8999 80 28.6999 83 28.6999C84.9 28.6999 86.1 28.0999 88.2 27.0999V30.1999C86.2 31.1999 84.7 31.5999 82.6 31.5999C77.1 31.5999 74.3 27.9999 74.3 24.2999C74.3 20.4999 77.4 16.8999 82.9 16.8999C84.9 16.8999 86.7 17.2999 88.1 18.0999V21.4999" fill="#748D93"/>
<path d="M90.9 0.199951V10.3L91.9 12.3C92.1 12.6 92.3 12.9 92.7 12.7L92.6 12.8L96.7 10.4L96.2 14.5H105.4V0.199951H90.9Z" fill="#748D93"/>
<path d="M97.2 17.3L94.5 20C93.7 20.8 94 21.4001 95 21.2001L98.6 20.4L98.3 22.1C98.2 22.6 98.6 22.7 99 22.9L101.5 23.9L98.9 26H98.8C98.5 26.3 98.1 26.5 98.4 26.9L98.9 27.8L91.9 28.6C91.1 28.8 91.2 29.0001 91 29.7001L90.9 30.1V31.5H105.3V17.3H97.2Z" fill="#97C8CF"/>
</svg>
