<svg width="18" height="18" viewBox="0 0 18 18" fill="none" xmlns="http://www.w3.org/2000/svg">
<path d="M4.01786 18V5.98661H0.28125V18H4.01786ZM2.16964 4.33929C2.73214 4.33929 3.25446 4.13839 3.69643 3.69643C4.09821 3.29464 4.33929 2.77232 4.33929 2.16964C4.33929 1.60714 4.09821 1.08482 3.69643 0.642857C3.25446 0.241071 2.73214 0 2.16964 0C1.56696 0 1.04464 0.241071 0.642857 0.642857C0.200893 1.08482 0 1.60714 0 2.16964C0 2.77232 0.200893 3.29464 0.642857 3.69643C1.04464 4.13839 1.56696 4.33929 2.16964 4.33929ZM18 18V11.4107C18 9.5625 17.7188 8.19643 17.1964 7.3125C16.4732 6.22768 15.2679 5.66518 13.5402 5.66518C12.6563 5.66518 11.933 5.90625 11.2902 6.30804C10.6875 6.66964 10.2455 7.11161 10.0045 7.63393H9.96429V5.98661H6.38839V18H10.0848V12.0536C10.0848 11.1295 10.2054 10.4062 10.4866 9.92411C10.808 9.28125 11.4107 8.95982 12.2946 8.95982C13.1384 8.95982 13.7009 9.32143 14.0223 10.0446C14.183 10.4866 14.2634 11.1696 14.2634 12.1339V18H18Z" fill="#00081E"/>
</svg>
